<svg width="192" height="18" viewBox="0 0 192 18" fill="none" xmlns="http://www.w3.org/2000/svg">
<path d="M6.85788 1.418H5.936L0.0449697 16.9325H0.899394L2.56327 12.503H10.2306L11.8945 16.9325H12.7489L6.85788 1.418ZM9.91582 11.761H2.87806L6.3857 2.36236L9.91582 11.761ZM19.1422 16.1456V1.37303H18.3102V16.9775H28.0911V16.1456H19.1422ZM44.0303 1.39551H34.2943V16.955H44.0303V16.1681H35.0813V9.58H42.8835V8.77054H35.0813V2.18248H44.0303V1.39551ZM61.0487 1.37303V15.7408L51.2677 1.37303H50.2334V16.9775H51.0654V2.54224L60.8913 16.9775H61.8806L61.8581 16.9325H61.8806V1.37303H61.0487ZM74.4591 1.418H73.5372L67.6462 16.9325H68.5006L70.1645 12.503H77.8318L79.4957 16.9325H80.3501L74.4591 1.418ZM77.517 11.761H70.4793L73.9869 2.36236L77.517 11.761ZM99.245 9.26521L105.856 16.9775H106.867L99.7846 8.68061L106.485 1.37303H105.518L96.974 10.5918V1.37303H96.1421V16.9775H96.974V11.7385L99.245 9.26521ZM122.367 1.39551H112.631V16.955H122.367V16.1681H113.418V9.58H121.22V8.77054H113.418V2.18248H122.367V1.39551ZM133.511 8.36582L133.286 8.29836C131.127 7.6463 128.699 6.9043 128.767 4.85818C128.789 3.91382 129.216 3.08188 130.071 2.47479C130.88 1.91267 132.027 1.64285 133.376 1.66533C135.355 1.73279 136.929 2.74461 137.581 4.31854V4.36351L138.345 4.0937V4.04873C137.581 2.16 135.714 0.990787 133.398 0.900847C130.273 0.810907 128.002 2.40733 127.935 4.8357C127.845 7.44394 130.543 8.27588 132.319 8.838L132.521 8.90545C132.746 8.97291 132.949 9.04036 133.174 9.08533C135.31 9.71491 137.94 10.5244 137.85 13.1326C137.828 14.1894 137.356 15.1113 136.456 15.7633C135.579 16.3929 134.388 16.7077 132.971 16.6627C129.913 16.5728 128.519 14.729 128.249 13.0202V12.9977L128.227 12.9752H128.204L127.417 12.9527V12.9977C127.575 14.1444 128.114 15.2012 128.924 15.9432C129.936 16.8651 131.33 17.3822 132.949 17.4272C133.039 17.4497 133.129 17.4497 133.219 17.4497C134.68 17.4497 136.007 17.0675 137.018 16.3255C138.03 15.561 138.637 14.4367 138.682 13.1551C138.795 9.93976 135.602 8.99539 133.511 8.36582ZM150.241 8.36582L150.016 8.29836C147.858 7.6463 145.429 6.9043 145.497 4.85818C145.519 3.91382 145.946 3.08188 146.801 2.47479C147.61 1.91267 148.757 1.64285 150.106 1.66533C152.085 1.73279 153.659 2.74461 154.311 4.31854V4.36351L155.075 4.0937V4.04873C154.311 2.16 152.444 0.990787 150.129 0.900847C147.003 0.810907 144.732 2.40733 144.665 4.8357C144.575 7.44394 147.273 8.27588 149.049 8.838L149.252 8.90545C149.476 8.97291 149.679 9.04036 149.904 9.08533C152.04 9.71491 154.67 10.5244 154.581 13.1326C154.558 14.1894 154.086 15.1113 153.186 15.7633C152.31 16.3929 151.118 16.7077 149.701 16.6627C146.643 16.5728 145.249 14.729 144.98 13.0202V12.9977L144.957 12.9752H144.935L144.148 12.9527V12.9977C144.305 14.1444 144.845 15.2012 145.654 15.9432C146.666 16.8651 148.06 17.3822 149.679 17.4272C149.769 17.4497 149.859 17.4497 149.949 17.4497C151.41 17.4497 152.737 17.0675 153.749 16.3255C154.76 15.561 155.368 14.4367 155.412 13.1551C155.525 9.93976 152.332 8.99539 150.241 8.36582ZM171.108 1.39551H161.372V16.955H171.108V16.1681H162.159V9.58H169.962V8.77054H162.159V2.18248H171.108V1.39551ZM191.859 1.37303H190.757L184.552 13.6947L178.368 1.37303H177.311V16.9775H178.143V2.81206L184.079 14.6391H185.046L191.027 2.69963V16.9775H191.859V1.37303Z" fill="white"/>
</svg>
