<svg width="357" height="18" viewBox="0 0 357 18" fill="none" xmlns="http://www.w3.org/2000/svg">
<path d="M6.85788 1.418H5.936L0.0449697 16.9325H0.899394L2.56327 12.503H10.2306L11.8945 16.9325H12.7489L6.85788 1.418ZM9.91582 11.761H2.87806L6.3857 2.36236L9.91582 11.761ZM19.1422 16.1456V1.37303H18.3102V16.9775H28.0911V16.1456H19.1422ZM44.0303 1.39551H34.2943V16.955H44.0303V16.1681H35.0813V9.58H42.8835V8.77054H35.0813V2.18248H44.0303V1.39551ZM61.0487 1.37303V15.7408L51.2677 1.37303H50.2334V16.9775H51.0654V2.54224L60.8913 16.9775H61.8806L61.8581 16.9325H61.8806V1.37303H61.0487ZM74.4591 1.418H73.5372L67.6462 16.9325H68.5006L70.1645 12.503H77.8318L79.4957 16.9325H80.3501L74.4591 1.418ZM77.517 11.761H70.4793L73.9869 2.36236L77.517 11.761ZM99.245 9.26521L105.856 16.9775H106.867L99.7846 8.68061L106.485 1.37303H105.518L96.974 10.5918V1.37303H96.1421V16.9775H96.974V11.7385L99.245 9.26521ZM122.367 1.39551H112.631V16.955H122.367V16.1681H113.418V9.58H121.22V8.77054H113.418V2.18248H122.367V1.39551ZM133.511 8.36582L133.286 8.29836C131.127 7.6463 128.699 6.9043 128.767 4.85818C128.789 3.91382 129.216 3.08188 130.071 2.47479C130.88 1.91267 132.027 1.64285 133.376 1.66533C135.355 1.73279 136.929 2.74461 137.581 4.31854V4.36351L138.345 4.0937V4.04873C137.581 2.16 135.714 0.990787 133.398 0.900847C130.273 0.810907 128.002 2.40733 127.935 4.8357C127.845 7.44394 130.543 8.27588 132.319 8.838L132.521 8.90545C132.746 8.97291 132.949 9.04036 133.174 9.08533C135.31 9.71491 137.94 10.5244 137.85 13.1326C137.828 14.1894 137.356 15.1113 136.456 15.7633C135.579 16.3929 134.388 16.7077 132.971 16.6627C129.913 16.5728 128.519 14.729 128.249 13.0202V12.9977L128.227 12.9752H128.204L127.417 12.9527V12.9977C127.575 14.1444 128.114 15.2012 128.924 15.9432C129.936 16.8651 131.33 17.3822 132.949 17.4272C133.039 17.4497 133.129 17.4497 133.219 17.4497C134.68 17.4497 136.007 17.0675 137.018 16.3255C138.03 15.561 138.637 14.4367 138.682 13.1551C138.795 9.93976 135.602 8.99539 133.511 8.36582ZM150.241 8.36582L150.016 8.29836C147.858 7.6463 145.429 6.9043 145.497 4.85818C145.519 3.91382 145.946 3.08188 146.801 2.47479C147.61 1.91267 148.757 1.64285 150.106 1.66533C152.085 1.73279 153.659 2.74461 154.311 4.31854V4.36351L155.075 4.0937V4.04873C154.311 2.16 152.444 0.990787 150.129 0.900847C147.003 0.810907 144.732 2.40733 144.665 4.8357C144.575 7.44394 147.273 8.27588 149.049 8.838L149.252 8.90545C149.476 8.97291 149.679 9.04036 149.904 9.08533C152.04 9.71491 154.67 10.5244 154.581 13.1326C154.558 14.1894 154.086 15.1113 153.186 15.7633C152.31 16.3929 151.118 16.7077 149.701 16.6627C146.643 16.5728 145.249 14.729 144.98 13.0202V12.9977L144.957 12.9752H144.935L144.148 12.9527V12.9977C144.305 14.1444 144.845 15.2012 145.654 15.9432C146.666 16.8651 148.06 17.3822 149.679 17.4272C149.769 17.4497 149.859 17.4497 149.949 17.4497C151.41 17.4497 152.737 17.0675 153.749 16.3255C154.76 15.561 155.368 14.4367 155.412 13.1551C155.525 9.93976 152.332 8.99539 150.241 8.36582ZM171.108 1.39551H161.372V16.955H171.108V16.1681H162.159V9.58H169.962V8.77054H162.159V2.18248H171.108V1.39551ZM191.859 1.37303H190.757L184.552 13.6947L178.368 1.37303H177.311V16.9775H178.143V2.81206L184.079 14.6391H185.046L191.027 2.69963V16.9775H191.859V1.37303ZM214.154 1.35054H208.466V17H209.253V10.7717H214.154C216.74 10.7717 218.854 8.65812 218.854 6.07236C218.854 3.46412 216.74 1.35054 214.154 1.35054ZM214.154 9.98473H209.253V2.13751H214.154C216.313 2.13751 218.067 3.89133 218.067 6.07236C218.067 8.23091 216.313 9.98473 214.154 9.98473ZM232.384 0.900847C227.842 0.900847 224.109 4.63333 224.109 9.17527C224.109 13.7172 227.842 17.4497 232.384 17.4497C236.926 17.4497 240.658 13.7172 240.658 9.17527C240.658 4.63333 236.926 0.900847 232.384 0.900847ZM232.384 16.6402C228.247 16.6402 224.896 13.3125 224.896 9.17527C224.896 5.03806 228.247 1.7103 232.384 1.7103C236.521 1.7103 239.849 5.03806 239.849 9.17527C239.849 13.3125 236.521 16.6402 232.384 16.6402ZM256.946 6.07236C256.946 3.4866 254.855 1.39551 252.27 1.39551H246.603V16.9775H247.345V10.7717H252.067L255.867 16.9775H256.857L253.034 10.7042C255.26 10.3445 256.946 8.41079 256.946 6.07236ZM252.27 10.0072H247.345V2.13751H252.27C254.428 2.13751 256.204 3.91382 256.204 6.07236C256.204 8.25339 254.428 10.0072 252.27 10.0072ZM273.394 1.37303H261.32V2.20497H266.941V16.9775H267.773V2.20497H273.394V1.37303ZM288.9 1.37303H279.12V16.9775H279.951V9.58H287.754V8.74806H279.951V2.20497H288.9V1.37303ZM301.983 0.900847C297.441 0.900847 293.709 4.63333 293.709 9.17527C293.709 13.7172 297.441 17.4497 301.983 17.4497C306.525 17.4497 310.258 13.7172 310.258 9.17527C310.258 4.63333 306.525 0.900847 301.983 0.900847ZM301.983 16.6402C297.846 16.6402 294.496 13.3125 294.496 9.17527C294.496 5.03806 297.846 1.7103 301.983 1.7103C306.12 1.7103 309.448 5.03806 309.448 9.17527C309.448 13.3125 306.12 16.6402 301.983 16.6402ZM317.035 16.1456V1.37303H316.203V16.9775H325.984V16.1456H317.035ZM332.614 16.9775H333.446V1.37303H332.614V16.9775ZM348.111 0.900847C343.569 0.900847 339.837 4.63333 339.837 9.17527C339.837 13.7172 343.569 17.4497 348.111 17.4497C352.653 17.4497 356.386 13.7172 356.386 9.17527C356.386 4.63333 352.653 0.900847 348.111 0.900847ZM348.111 16.6402C343.974 16.6402 340.624 13.3125 340.624 9.17527C340.624 5.03806 343.974 1.7103 348.111 1.7103C352.249 1.7103 355.576 5.03806 355.576 9.17527C355.576 13.3125 352.249 16.6402 348.111 16.6402Z" fill="white"/>
</svg>
